<svg xmlns="http://www.w3.org/2000/svg" viewBox="0 0 64 64" width="256" height="256"><path fill="#167ffc" d="M32.239,21.809v5.11l-.239,.348-3.41-4.961c.308-.278,.527-.666,.606-1.094l.099-.587c.05,.05,.099,.089,.139,.129l.02,.02c.776,.706,1.79,1.064,2.784,1.034Z" class="colorf9cb93 svgShape"></path><path fill="#f1b97d" d="M32.239,10.107v11.702c-.994,.03-2.008-.328-2.784-1.034l-.02-.02c-.04-.04-.09-.08-.139-.129-.547-.527-1.004-1.143-1.412-1.78-1.233-1.959-1.879-4.245-1.919-6.572v-.189l-.05-3.211c2.635,1.998,5.001,1.68,6.323,1.233Z" class="colorf1c27d svgShape"></path><path fill="#d39b5f" d="M35.41,22.306l-3.172,4.613v-5.11c.109,.01,.219,0,.318-.02,.119-.01,.229-.03,.338-.04,.089-.01,.169-.03,.259-.05,.02-.01,.03-.01,.05-.02,.099-.03,.199-.07,.288-.099,.209-.079,.428-.189,.626-.308,.099-.06,.199-.129,.298-.199,.099-.07,.189-.149,.278-.229l.04-.04,.07,.408c.08,.428,.298,.815,.606,1.094Z" class="colord39c5f svgShape"></path><path fill="#53d86a" d="M37.389 10.077c-.408.686-1.293.925-2.008.557l-.01-.01c.716.268 1.531.04 2.018-.547zM42.758 30.489H21.242c.259-1.571.994-3.848.994-3.848.984-2.496 3.778-3.48 5.438-3.848.348-.08.656-.249.915-.487l3.41 4.961.239-.348 3.172-4.613c.259.239.567.408.915.487 1.66.368 4.454 1.352 5.438 3.848 0 0 .736 2.277.994 3.848z" class="color05c46b svgShape"></path><path fill="#484860" d="M39.119,5.891c0,.756-.209,1.501-.636,2.177-.08,.119-.587,1.074-1.044,1.929-.01,.03-.03,.06-.05,.079-.487,.587-1.302,.815-2.018,.547l-.07-.03-1.959-1.014s-3.4,2.346-7.427-.706l-.119-.139c-1.034-1.243-1.253-2.953-.437-4.325,.378-.636,.905-1.014,1.631-.607l3.629-2.038c2.336-1.312,5.319-.905,7.168,.974,.855,.875,1.332,2.018,1.332,3.152Z" class="color485460 svgShape"></path><path fill="#53d86a" d="M37.389,10.077c-.408,.686-1.293,.925-2.008,.557l-.01-.01c.716,.268,1.531,.04,2.018-.547Z" class="color05c46b svgShape"></path><polygon fill="#ffa648" points="45.104 33.929 39.139 63 25.339 63 19.373 33.929 45.104 33.929" class="colorffc048 svgShape"></polygon><rect width="37.94" height="3.44" x="13.03" y="30.489" fill="#484860" rx="1.66" ry="1.66" class="color485460 svgShape"></rect><path fill="#484860" d="M47.699,18.638v11.851h-1.988v-11.553l-3.788-5.846c-.298-.467-.169-1.074,.288-1.372,.467-.298,1.084-.169,1.382,.288l3.937,6.095c.109,.159,.169,.348,.169,.537Z" class="color485460 svgShape"></path><path fill="#e0a669" d="M32.278,10.087c-.01,0-.02,.01-.04,.02v-.01c.02-.01,.03-.01,.04-.01Z" class="colore0ac69 svgShape"></path><path fill="#07aa23" d="M42.758,30.489h-10.519v-3.569l3.172-4.613c.259,.239,.567,.408,.915,.487,1.66,.368,4.454,1.352,5.438,3.848,0,0,.736,2.277,.994,3.848Z" class="color07aa59 svgShape"></path><path fill="#e0a669" d="M38.244,8.616v3.569c-.02,1.352-.239,2.694-.686,3.967-.825,2.356-1.869,3.778-2.824,4.653l-.04,.04c-.09,.08-.179,.159-.278,.229-.099,.07-.199,.139-.298,.199-.199,.119-.418,.229-.626,.308-.089,.03-.189,.07-.288,.099-.02,.01-.03,.01-.05,.02-.09,.02-.169,.04-.259,.05-.109,.01-.219,.03-.338,.04-.099,.01-.209,.02-.318,.02V10.107c.02-.01,.03-.02,.04-.02,.02-.01,.03-.02,.04-.02,.03-.01,.06-.02,.08-.03,.597-.219,.945-.457,.945-.457l1.959,1.014,.07,.03,.01,.01c.716,.368,1.601,.129,2.008-.557,.079-.079,.139-.179,.199-.278l.656-1.183Z" class="colore0ac69 svgShape"></path><path fill="#373747" d="M35.301,10.594l.07,.03c.716,.268,1.531,.04,2.018-.547,.02-.02,.04-.05,.05-.079,.457-.855,.964-1.81,1.044-1.929,.428-.676,.636-1.422,.636-2.177,0-1.133-.477-2.277-1.332-3.152-1.442-1.465-3.571-2.022-5.548-1.58V10.098c.693-.24,1.104-.518,1.104-.518l1.959,1.014Z" class="color374047 svgShape"></path><path d="M35.37,10.624l.01,.01c.716,.368,1.601,.129,2.008-.557-.487,.587-1.302,.815-2.018,.547Z" fill="#000000" class="color000 svgShape"></path><polygon fill="#fe9526" points="45.104 33.929 32.239 33.929 32.239 63 39.139 63 45.104 33.929" class="colorffa801 svgShape"></polygon><path fill="#373747" d="M49.31,33.929c.925,0,1.66-.746,1.66-1.66v-.119c0-.915-.736-1.66-1.66-1.66h-17.071v3.44h17.071Z" class="color374047 svgShape"></path><path fill="#595bd4" d="M47.699,18.638c0-.189-.06-.378-.169-.537l-3.937-6.095c-.298-.457-.915-.587-1.382-.288-.457,.298-.587,.905-.288,1.372l3.788,5.846v11.553h1.988v-11.851Z" class="color748089 svgShape"></path></svg>