<svg xmlns="http://www.w3.org/2000/svg" viewBox="0 0 24 24" width="256" height="256"><path fill="#595bd4" d="M14.812 17.11 12.5 15.26V12.5h-1v2.76l-2.313 1.85.625.78L12 16.14l2.187 1.75z" class="color878A8F svgShape"></path><circle cx="12" cy="3.5" r="2.5" fill="#167ffc" class="color0097CF svgShape"></circle><path fill="#167ffc" d="M15.42 7.532C14.622 7.06 13.38 6.5 12 6.5s-2.622.561-3.42 1.032c-.666.393-1.08 1.156-1.08 1.991V11h9V9.523c0-.835-.414-1.598-1.08-1.991z" class="color0097CF svgShape"></path><circle cx="5.5" cy="15.5" r="2.5" fill="#fe9526" class="colorFFDA02 svgShape"></circle><path fill="#fe9526" d="M8.92 19.532C8.122 19.06 6.88 18.5 5.5 18.5s-2.622.561-3.42 1.032C1.414 19.925 1 20.688 1 21.523V23h9v-1.477c0-.835-.414-1.598-1.08-1.991z" class="colorFFDA02 svgShape"></path><path d="M5.5 17.75a2.624 2.624 0 0 1-2.386-1.546C3.42 17.24 4.368 18 5.5 18s2.08-.761 2.386-1.796A2.624 2.624 0 0 1 5.5 17.75z" opacity=".1" fill="#000000" class="color000 svgShape"></path><path fill="#53d86a" d="M5.5 13.25c1.062 0 1.973.637 2.386 1.546C7.58 13.76 6.632 13 5.5 13s-2.08.761-2.386 1.796A2.624 2.624 0 0 1 5.5 13.25z" opacity=".2" class="colorFFF svgShape"></path><path d="M1 22.75h9V23H1z" opacity=".1" fill="#000000" class="color000 svgShape"></path><circle cx="18.5" cy="15.5" r="2.5" fill="#3133ab" class="colorAB3192 svgShape"></circle><path fill="#3133ab" d="M21.92 19.532c-.798-.471-2.04-1.032-3.42-1.032s-2.622.561-3.42 1.032c-.666.393-1.08 1.156-1.08 1.991V23h9v-1.477c0-.835-.414-1.598-1.08-1.991z" class="colorAB3192 svgShape"></path><path fill="#53d86a" d="M8.92 19.532C8.122 19.06 6.88 18.5 5.5 18.5s-2.622.561-3.42 1.032C1.414 19.925 1 20.688 1 21.523v.25c0-.835.414-1.598 1.08-1.991.798-.471 2.04-1.032 3.42-1.032s2.622.561 3.42 1.032c.666.393 1.08 1.156 1.08 1.991v-.25c0-.835-.414-1.598-1.08-1.991z" opacity=".2" class="colorFFF svgShape"></path><path d="M12 5.75a2.624 2.624 0 0 1-2.386-1.546C9.92 5.24 10.868 6 12 6s2.08-.761 2.386-1.796A2.624 2.624 0 0 1 12 5.75z" opacity=".1" fill="#000000" class="color000 svgShape"></path><path fill="#53d86a" d="M12 1.25c1.062 0 1.973.637 2.386 1.546C14.08 1.76 13.132 1 12 1s-2.08.761-2.386 1.796A2.624 2.624 0 0 1 12 1.25z" opacity=".2" class="colorFFF svgShape"></path><path d="M7.5 10.75h9V11h-9z" opacity=".1" fill="#000000" class="color000 svgShape"></path><path fill="#53d86a" d="M15.42 7.532C14.622 7.06 13.38 6.5 12 6.5s-2.622.561-3.42 1.032c-.666.393-1.08 1.156-1.08 1.991v.25c0-.835.414-1.598 1.08-1.991C9.378 7.31 10.62 6.75 12 6.75s2.622.561 3.42 1.032c.666.393 1.08 1.156 1.08 1.991v-.25c0-.835-.414-1.598-1.08-1.991z" opacity=".2" class="colorFFF svgShape"></path><path d="M18.5 17.75a2.624 2.624 0 0 1-2.386-1.546C16.42 17.24 17.368 18 18.5 18s2.08-.761 2.386-1.796A2.624 2.624 0 0 1 18.5 17.75z" opacity=".1" fill="#000000" class="color000 svgShape"></path><path fill="#53d86a" d="M18.5 13.25c1.062 0 1.973.637 2.386 1.546C20.58 13.76 19.632 13 18.5 13s-2.08.761-2.386 1.796A2.624 2.624 0 0 1 18.5 13.25z" opacity=".2" class="colorFFF svgShape"></path><path d="M14 22.75h9V23h-9z" opacity=".1" fill="#000000" class="color000 svgShape"></path><path fill="#53d86a" d="M21.92 19.532c-.798-.471-2.04-1.032-3.42-1.032s-2.622.561-3.42 1.032c-.666.393-1.08 1.156-1.08 1.991v.25c0-.835.414-1.598 1.08-1.991.798-.471 2.04-1.032 3.42-1.032s2.622.561 3.42 1.032c.666.393 1.08 1.156 1.08 1.991v-.25c0-.835-.414-1.598-1.08-1.991z" opacity=".2" class="colorFFF svgShape"></path><linearGradient id="a" x1="4.803" x2="24.316" y1="11.08" y2="20.178" gradientUnits="userSpaceOnUse"><stop offset="0" stop-color="#ffffff" stop-opacity=".2" class="stopColorFFF svgShape"></stop><stop offset="1" stop-color="#ffffff" stop-opacity="0" class="stopColorFFF svgShape"></stop></linearGradient><path fill="url(#a)" d="M14.812 17.11 12.5 15.26V12.5h-1v2.76l-2.313 1.85.625.78L12 16.14l2.187 1.75.625-.78zM12 6c1.378 0 2.5-1.122 2.5-2.5S13.378 1 12 1 9.5 2.122 9.5 3.5 10.622 6 12 6zm4.5 3.523c0-.835-.414-1.598-1.08-1.991C14.622 7.06 13.38 6.5 12 6.5s-2.622.561-3.42 1.032c-.666.393-1.08 1.156-1.08 1.991V11h9V9.523zM5.5 18C6.878 18 8 16.878 8 15.5S6.878 13 5.5 13 3 14.122 3 15.5 4.122 18 5.5 18zm3.42 1.532C8.122 19.06 6.88 18.5 5.5 18.5s-2.622.561-3.42 1.032C1.414 19.925 1 20.688 1 21.523V23h9v-1.477c0-.835-.414-1.598-1.08-1.991zM18.5 18c1.378 0 2.5-1.122 2.5-2.5S19.878 13 18.5 13 16 14.122 16 15.5s1.122 2.5 2.5 2.5zm3.42 1.532c-.798-.471-2.04-1.032-3.42-1.032s-2.622.561-3.42 1.032c-.666.393-1.08 1.156-1.08 1.991V23h9v-1.477c0-.835-.414-1.598-1.08-1.991z"></path></svg>