<svg xmlns="http://www.w3.org/2000/svg" viewBox="0 0 512 512" width="288" height="288"><path fill="#dfdfdf" d="M256 24C136.707 24 40 118.916 40 236a208.063 208.063 0 0 0 30.09 108h371.82A208.06 208.06 0 0 0 472 236c0-117.084-96.707-212-216-212Z" class="colordfdfdf svgShape"></path><path fill="#4b48d7" d="M88 380c0 59.647 75.216 108 168 108s168-48.353 168-108Z" class="color4b48d7 svgShape"></path><ellipse cx="256" cy="352" fill="#6562f1" rx="232" ry="88" class="color6562f1 svgShape"></ellipse><path fill="#08ccf9" d="M368 96v127.727a216.718 216.718 0 0 1 64 38.966V180.49A212.953 212.953 0 0 0 368 96zm-224 0v127.727a216.718 216.718 0 0 0-64 38.966V180.49A212.953 212.953 0 0 1 144 96z" class="color08ccf9 svgShape"></path><path fill="#bebebe" d="M481.048 145.55a243.758 243.758 0 0 0-36.143-60l6.19-5.067a251.718 251.718 0 0 1 37.328 61.968zm-45.56-70.84a246.373 246.373 0 0 0-15.891-15.744l5.365-5.933a254.139 254.139 0 0 1 16.41 16.257zm-29.942-27.525a245.507 245.507 0 0 0-16.62-11.833l4.365-6.705a253.924 253.924 0 0 1 17.163 12.22zM67.096 85.551l-6.192-5.068a252.91 252.91 0 0 1 57.806-51.836l4.363 6.706A244.898 244.898 0 0 0 67.096 85.55zm-20.13 28.516-6.848-4.134a253.04 253.04 0 0 1 10.693-16.258l6.51 4.65a245.652 245.652 0 0 0-10.355 15.742zM30.952 145.55l-7.375-3.098a251.959 251.959 0 0 1 7.527-16.26l7.134 3.618a244.165 244.165 0 0 0-7.286 15.74z" class="colorbebebe svgShape"></path><path fill="#08ccf9" d="M256 63.192c-31.34 0-59.672 6.436-80 16.808v144c20.328-10.372 48.66-16.808 80-16.808 31.339 0 59.672 6.436 80 16.808V80c-20.328-10.372-48.661-16.808-80-16.808Z" class="color08ccf9 svgShape"></path><path fill="#06a4c9" d="M310.889 122.526a209.064 209.064 0 0 0-109.778 0l-2.222-7.685a217.024 217.024 0 0 1 114.222 0zm0 40a209.064 209.064 0 0 0-109.778 0l-2.222-7.685a217.024 217.024 0 0 1 114.222 0z" class="color06a4c9 svgShape"></path><path fill="#fa8481" d="m256 352 32 136h32l-24-136v-64h48a32 32 0 0 0 32-32H264l11.97-17.954a24 24 0 0 0 4.03-13.313V208a24 24 0 0 0-24-24 24 24 0 0 0-24 24v16.733a24 24 0 0 0 4.03 13.313L248 256H136a32 32 0 0 0 32 32h48v64l-24 136h32Z" class="colorfa8481 svgShape"></path><path fill="#191944" d="M463.543 307.74A212.856 212.856 0 0 0 476 236c0-57.71-22.894-111.961-64.463-152.761C369.987 42.459 314.75 20 256 20S142.013 42.459 100.463 83.239C58.893 124.039 36 178.29 36 236a212.857 212.857 0 0 0 12.457 71.742C29.967 321.06 20 336.206 20 352c0 19.943 15.509 38.766 44.849 54.433a229.141 229.141 0 0 0 30.181 13.21c13.453 23.243 38.737 43.108 71.456 56.076l2.948-7.438c-27.1-10.74-48.733-26.312-62.145-44.518a427.394 427.394 0 0 0 68.16 14.827l1.103-7.924c-43.673-6.085-80.996-16.905-107.935-31.29C42.045 385.188 28 368.806 28 352c0-12.808 8.157-25.309 23.35-36.646a212.602 212.602 0 0 0 15.318 30.715l6.847-4.138a204.657 204.657 0 0 1-15.417-31.243c13.165-8.448 30.394-16.138 51.206-22.676l-2.399-7.632c-20.623 6.48-37.958 14.18-51.59 22.751A204.859 204.859 0 0 1 44 236c0-114.691 95.103-208 212-208s212 93.309 212 208a204.86 204.86 0 0 1-11.314 67.127c-13.7-8.613-31.146-16.346-51.908-22.846l-2.39 7.635c20.95 6.558 38.287 14.28 51.516 22.768a204.668 204.668 0 0 1-15.419 31.247l6.847 4.138a212.595 212.595 0 0 0 15.319-30.717C475.843 326.687 484 339.188 484 352c0 16.805-14.045 33.188-40.617 47.376-26.939 14.385-64.262 25.205-107.935 31.29l1.104 7.924a427.394 427.394 0 0 0 68.159-14.827c-13.412 18.205-35.045 33.778-62.145 44.518l2.948 7.438c32.72-12.968 58.003-32.833 71.456-56.077a229.117 229.117 0 0 0 30.181-13.209C476.491 390.766 492 371.943 492 352c0-15.798-9.966-30.942-28.457-44.26Z" class="color191944 svgShape"></path><path fill="#191944" d="M300 351.65V292h44a36.04 36.04 0 0 0 36-36 4 4 0 0 0-4-4H271.474l7.823-11.734A27.906 27.906 0 0 0 284 224.733V208a28 28 0 0 0-56 0v16.733a27.903 27.903 0 0 0 4.703 15.532L240.526 252H136a4 4 0 0 0-4 4 36.04 36.04 0 0 0 36 36h44v59.65l-23.94 135.655A4 4 0 0 0 192 492h32a4 4 0 0 0 3.894-3.084L256 369.464l28.106 119.452A4 4 0 0 0 288 492h32a4 4 0 0 0 3.94-4.695ZM291.168 484l-31.274-132.916a4 4 0 0 0-7.788 0L220.832 484h-24.064l23.171-131.305A4.048 4.048 0 0 0 220 352v-64a4 4 0 0 0-4-4h-48a28.043 28.043 0 0 1-27.715-24H248a4 4 0 0 0 3.328-6.219l-11.969-17.954A19.928 19.928 0 0 1 236 224.733V208a20 20 0 0 1 40 0v16.733a19.93 19.93 0 0 1-3.36 11.095l-11.968 17.953A4 4 0 0 0 264 260h107.715A28.043 28.043 0 0 1 344 284h-48a4 4 0 0 0-4 4v64a4.048 4.048 0 0 0 .06.695L315.233 484Z" class="color191944 svgShape"></path><path fill="#191944" d="M336 228a4 4 0 0 0 4-4V80a4 4 0 0 0-2.182-3.563C316.023 65.317 286.967 59.192 256 59.192s-60.023 6.124-81.818 17.245A4 4 0 0 0 172 80v144a4 4 0 0 0 5.818 3.563 139.628 139.628 0 0 1 31.106-11.09l-1.848-7.784A154.679 154.679 0 0 0 180 217.665V82.48c20.44-9.872 47.306-15.288 76-15.288s55.56 5.416 76 15.288v135.185a154.679 154.679 0 0 0-27.076-8.976l-1.848 7.784a139.628 139.628 0 0 1 31.106 11.09A4 4 0 0 0 336 228Z" class="color191944 svgShape"></path><path fill="#191944" d="m310.889 122.526 2.222-7.685a217.024 217.024 0 0 0-114.222 0l2.222 7.685a209.064 209.064 0 0 1 109.778 0zm-109.778 40a209.064 209.064 0 0 1 109.778 0l2.222-7.685a217.024 217.024 0 0 0-114.222 0zm228.25 103.172a4 4 0 0 0 6.639-3.005V180.49a4.003 4.003 0 0 0-.308-1.539 217.388 217.388 0 0 0-65.2-86.08A4 4 0 0 0 364 96v127.727a4 4 0 0 0 2.542 3.724 212.062 212.062 0 0 1 62.818 38.247zM372 104.515a209.139 209.139 0 0 1 56 76.78v72.786a219.914 219.914 0 0 0-56-33.066zM148 223.727V96a4 4 0 0 0-6.492-3.129 217.397 217.397 0 0 0-65.2 86.08A4.003 4.003 0 0 0 76 180.49v82.202a4 4 0 0 0 6.64 3.006 212.063 212.063 0 0 1 62.818-38.247 4 4 0 0 0 2.542-3.724zm-8-2.712a219.853 219.853 0 0 0-56 33.066v-72.787a209.149 209.149 0 0 1 56-76.78zm348.423-78.564a251.718 251.718 0 0 0-37.328-61.968l-6.19 5.068a243.758 243.758 0 0 1 36.143 59.998zm-52.935-67.74 5.883-5.421a254.134 254.134 0 0 0-16.41-16.257l-5.364 5.933a246.373 246.373 0 0 1 15.891 15.744zm-25.034-33.843a253.924 253.924 0 0 0-17.163-12.221l-4.365 6.705a245.514 245.514 0 0 1 16.62 11.833zm-287.38-5.515-4.364-6.706a252.91 252.91 0 0 0-57.806 51.836l6.192 5.068a244.898 244.898 0 0 1 55.977-50.198zM57.32 98.325l-6.51-4.65a253.023 253.023 0 0 0-10.692 16.258l6.848 4.134A245.652 245.652 0 0 1 57.32 98.325zM38.238 129.81l-7.134-3.618a251.943 251.943 0 0 0-7.527 16.26l7.375 3.098c2.229-5.303 4.68-10.599 7.286-15.74z" class="color191944 svgShape"></path></svg>