<svg xmlns="http://www.w3.org/2000/svg" data-name="Layer 3" viewBox="0 0 64 64" width="256" height="256"><path fill="#fe9526" d="M39,37.461a16.79,16.79,0,0,0,2.7-1.514l2.316,2.316,4.242-4.242-2.316-2.316A16.9,16.9,0,0,0,48.72,25H52V19H48.72a16.9,16.9,0,0,0-2.773-6.7l2.316-2.316L44.021,5.737,41.705,8.053A16.9,16.9,0,0,0,35,5.28V2H29V5.28a16.9,16.9,0,0,0-6.7,2.773L19.979,5.737,15.737,9.979,18.053,12.3A16.9,16.9,0,0,0,15.28,19H12v6h3.28a16.9,16.9,0,0,0,2.773,6.7l-2.316,2.316,4.242,4.242L22.3,35.947A16.79,16.79,0,0,0,25,37.461Z" class="colore2a02c svgShape"></path><path fill="#167ffc" d="M45.947,12.3l2.316-2.316L44.021,5.737,41.705,8.053A16.9,16.9,0,0,0,35,5.28V2H29V5.28a16.9,16.9,0,0,0-4.824,1.655A20.95,20.95,0,0,0,34.13,37.461H39a16.79,16.79,0,0,0,2.7-1.514l2.316,2.316,4.242-4.242-2.316-2.316A16.9,16.9,0,0,0,48.72,25H52V19H48.72A16.9,16.9,0,0,0,45.947,12.3Z" class="colorfcc533 svgShape"></path><polyline fill="#167ffc" points="38 41 38 53 32 62 26 53 26 41" class="colorfcc533 svgShape"></polyline><rect width="4" height="12" x="30" y="41" fill="#5a5a5d" class="color5a5b5d svgShape"></rect><rect width="5" height="2" x="4" y="21" fill="#ffaa50" class="colorffdd50 svgShape"></rect><rect width="2" height="4.243" x="6.5" y="5.379" fill="#ffaa50" transform="rotate(-45 7.5 7.5)" class="colorffdd50 svgShape"></rect><rect width="4.243" height="2" x="5.379" y="35.5" fill="#ffaa50" transform="rotate(-45 7.5 36.5)" class="colorffdd50 svgShape"></rect><rect width="5" height="2" x="55" y="21" fill="#ffaa50" class="colorffdd50 svgShape"></rect><rect width="4.243" height="2" x="54.379" y="6.5" fill="#ffaa50" transform="rotate(-45 56.5 7.5)" class="colorffdd50 svgShape"></rect><rect width="2" height="4.243" x="55.5" y="34.379" fill="#ffaa50" transform="rotate(-45 56.5 36.5)" class="colorffdd50 svgShape"></rect><path fill="#595bd4" d="M43,22a10.993,10.993,0,0,1-4,8.49V41H25V30.49A11.005,11.005,0,0,1,24.45,14H27v7l5,3,5-3V14h2.55A10.925,10.925,0,0,1,43,22Z" class="color9a9b9f svgShape"></path><path fill="#53d86a" d="M39.55,14H37v7l-5,3V41h7V30.49A11.005,11.005,0,0,0,39.55,14Z" class="colorb4b5b9 svgShape"></path><polygon fill="#feebd6" points="32 62 38 53 26 53 32 62" class="colorfee2d6 svgShape"></polygon><polygon fill="#5a5a5d" points="32 62 34 59 30 59 32 62" class="color5a5b5d svgShape"></polygon></svg>