<svg xmlns="http://www.w3.org/2000/svg" version="1.1" xmlns:xlink="http://www.w3.org/1999/xlink" width="512" height="512" x="0" y="0" viewBox="0 0 512 512" style="enable-background:new 0 0 512 512" xml:space="preserve" class=""><circle r="256" cx="256" cy="256" fill="#ffffff" shape="circle"></circle><g transform="matrix(0.8900000000000001,0,0,0.8900000000000001,18.15997062683104,28.159994964599548)"><path fill="#f1b986" d="M407.311 251.177h.196c16.833 0 30.472-13.651 30.472-30.472 0-16.833-13.639-30.484-30.472-30.484-.219 0-.438 0-.657.012H127.816c-.219-.012-.438-.012-.657-.012-16.833 0-30.472 13.651-30.472 30.484 0 16.821 13.639 30.472 30.472 30.472h.196" opacity="1" data-original="#f1b986" class=""></path><path fill="#f1d0a5" d="M400.301 110.648c-88.645-8.594-177.291-8.594-265.936 0-6.879 55.116-8.905 110.233-6.078 165.349 2.058 40.122 34.163 72.057 74.293 73.952a1372.376 1372.376 0 0 0 129.507 0c40.13-1.895 72.235-33.83 74.293-73.952 2.826-55.116.8-110.233-6.079-165.349z" opacity="1" data-original="#f1d0a5" class=""></path><path fill="#f1b986" d="M134.37 110.639a1376.71 1376.71 0 0 1 132.971-6.44c-22.442 0-44.884 2.169-67.325 6.506a1890.323 1890.323 0 0 0-3.081 166.932c.939 36.618 14.322 66.479 31.884 73.29a1336.89 1336.89 0 0 1-26.237-.979c-40.123-1.891-72.232-33.828-74.295-73.951-2.817-55.119-.794-110.238 6.083-165.358z" opacity="1" data-original="#f1b986" class=""></path><path fill="#6ec17d" d="M407.226 422.32v58.48c0 13.09-10.61 23.7-23.7 23.7h-256.09v-82.18c0-.81.01-1.62.04-2.42a81.06 81.06 0 0 1 5.74-27.81c6.34-15.91 17.55-29.36 31.78-38.5a80.613 80.613 0 0 1 15.68-7.84c6.9 2.39 14.26 3.83 21.9 4.2 43.17 2.03 86.34 2.03 129.51 0 7.64-.36 14.99-1.81 21.9-4.2h.01c31.08 11.54 53.23 41.46 53.23 76.57z" opacity="1" data-original="#6ec17d" class=""></path><path fill="#5ea570" d="M309.813 351.47c27.302 27.302 10.056 57.793 10.056 57.793-33.584-6.887-52.398-25.131-52.398-25.131s-18.814 18.243-52.398 25.131c0 0-17.246-30.491 10.056-57.793" opacity="1" data-original="#5ea570" class=""></path><path fill="#f1d0a5" d="m180.666 404.86-52.85 16.16-17.75-58.08L68.516 227c-.83-2.69-1.22-5.42-1.22-8.09 0-11.83 7.66-22.77 19.56-26.41 14.6-4.46 30.04 3.75 34.5 18.35l.49 1.6 10.78-4.55c3.28-1.38 6.78 1.49 6.04 4.99l-6.8 32.32 31.32 102.47z" opacity="1" data-original="#f1d0a5" class=""></path><path fill="#f1b986" d="m81.096 221.79 59.76 195.25-13.03 3.98L68.516 227c-.82-2.69-1.21-5.41-1.21-8.08 0-11.83 7.66-22.78 19.56-26.42 1.36-.42 2.74-.72 4.11-.92a27.692 27.692 0 0 0-11.09 22.13c0 2.67.39 5.39 1.21 8.08zM309.654 350.817c.017.218.017.435.017.653 0 18.037-18.951 32.662-42.334 32.662s-42.342-14.625-42.342-32.662c0-.218 0-.435.017-.653" opacity="1" data-original="#f1b986" class=""></path><path fill="#f1d0a5" d="M351.588 436.119v23.095h-43.101c-22.443 0-40.636 18.194-40.636 40.636v4.65h115.675c13.091 0 23.704-10.612 23.704-23.704v-44.677z" opacity="1" data-original="#f1d0a5" class=""></path><path fill="#6ec17d" d="m180.666 404.86-39.81 12.17-13.04 3.99-.34-1.12-17.41-56.96 13.08-3.76 40.04-11.5 1.81 5.91z" opacity="1" data-original="#6ec17d" class=""></path><path fill="#5ea570" d="M127.436 422.32c0-.81.01-1.62.04-2.42l-17.41-56.96 13.08-3.76 10.07 32.91 7.64 24.94v.01s13.56 31.58 13.56 87.46h-26.98z" opacity="1" data-original="#5ea570" class=""></path><path fill="#f1b986" d="M351.588 435.824h23.39v23.39h-23.39z" opacity="1" data-original="#f1b986" class=""></path><path fill="#5ea570" d="M351.588 421.015h23.39v14.809h-23.39z" opacity="1" data-original="#5ea570" class=""></path><path fill="#f1b986" d="M308.49 459.21h18.82c-22.45 0-40.64 18.2-40.64 40.64v4.65h-18.82v-4.65c.001-22.44 18.19-40.64 40.64-40.64z" opacity="1" data-original="#f1b986" class=""></path><path fill="#665e66" d="M341.167 156.481c-50.952 19.683-123.327 11.003-159.802-25.472 0 0-8.662 59.222-53.537 59.222l-19.569 6.581C55.992-8.344 167.471 46.473 167.471 46.473c10.525-20.396 25.855-28.84 41.872-30.877 1.41-.174 2.82-.305 4.239-.392.113 0 .226-.009.34-.017 11.282-.601 22.703 1.689 32.854 4.953a140.813 140.813 0 0 1 10.089 3.691c12.753 5.214 22.042 11.073 23.992 12.327.252.174.383.261.383.261C292.713 21.237 303.656 7.5 315.686 7.5c4.936 0 8.348 1.889 10.638 4.91 8.679 11.378 1.55 38.738.975 40.888l-.026.096c.009-.017.017-.052.035-.096l.061-.157C328.91 49.259 346.146 7.5 377.058 7.5c1.95 0 3.7.183 5.258.531 23.043 5.093 5.006 45.398 3.021 49.663l-.052.122c-.052.104-.087.183-.104.218.984-1.254 39.574-50.247 56.723-27.77.009.017.009.017.017.026 17.297 22.799-49.829 106.517-100.754 126.191z" opacity="1" data-original="#665e66" class=""></path><g fill="#454045"><path d="M441.904 30.264h-.009c-8.67-8.662-38.703 32.227-56.741 27.796l.131-.244c-.052.104-.087.183-.104.218.983-1.254 39.573-50.247 56.723-27.77zM382.316 8.031c-13.026-2.958-25.099 21.835-31.921 39.435-3.299 8.511-13.517 11.927-21.276 7.118l-1.863-1.155.017-.035.026-.096h.009l.061-.157C328.91 49.259 346.146 7.5 377.058 7.5c1.95 0 3.7.183 5.258.531zM209.341 15.596c-37.276 6.572-51.361 92.032-27.979 115.414 0 0-8.662 59.222-53.537 59.222l-19.569 6.581C55.989-8.344 167.468 46.473 167.468 46.473c10.525-20.396 25.855-28.84 41.873-30.877zM326.324 12.41c-13.101-13.101-21.833 54.086-51.326 64.845-29.493 10.76-32.253-2.995-32.253-2.995v-.009c14.52-5.371 26.777-22.346 38.486-37.842l.009.009c.357-.479.714-.949 1.071-1.419.444-.601.905-1.201 1.358-1.793C294.272 19.356 304.509 7.5 315.686 7.5c4.936 0 8.349 1.889 10.638 4.91z" fill="#454045" opacity="1" data-original="#454045" class=""></path></g><path d="M299.06 254.519a7.5 7.5 0 0 0-9.991 3.561c-3.963 8.351-12.495 13.747-21.736 13.747s-17.773-5.396-21.737-13.748a7.5 7.5 0 0 0-13.551 6.431c6.434 13.556 20.285 22.316 35.288 22.316s28.854-8.76 35.288-22.316a7.5 7.5 0 0 0-3.561-9.991zM202.449 191.159c-6.973 0-12.646 8.453-12.646 18.843s5.673 18.843 12.646 18.843 12.645-8.453 12.645-18.843-5.672-18.843-12.645-18.843zM332.217 191.159c-6.973 0-12.645 8.453-12.645 18.843s5.672 18.843 12.645 18.843 12.646-8.453 12.646-18.843-5.673-18.843-12.646-18.843z" fill="#000000" opacity="1" data-original="#000000" class=""></path><path d="M414.045 183.297a954.06 954.06 0 0 0-5.574-67.421c10.401-11.007 19.859-22.801 27.305-34.26 11.484-17.673 22.903-41.717 12.083-55.895-4.39-5.753-10.365-8.812-17.28-8.844-9.821-.015-20.439 6.386-29.475 13.893.787-7.551.101-15.063-3.598-20.876C394.634 5.38 388.754 0 377.056 0c-17.027 0-30.186 10.147-39.546 21.403-.838-5.555-2.586-10.088-5.235-13.557C328.354 2.713 322.615 0 315.676 0c-13.945 0-25.103 12.056-36.302 26.501a168.248 168.248 0 0 0-19.661-9.61 147.501 147.501 0 0 0-10.643-3.892c-12.74-4.091-24.695-5.871-35.53-5.299a7.756 7.756 0 0 0-.431.015 74.35 74.35 0 0 0-4.707.444c-18.874 2.392-33.712 12.099-44.193 28.883-11.708-4.172-36.613-10.165-55.575 5.165-24.543 19.841-28.296 67.49-11.223 141.68a34.937 34.937 0 0 0-12.75 1.44c-14.874 4.549-24.866 18.044-24.866 33.582 0 3.496.522 6.962 1.547 10.282l20.83 68.16a7.499 7.499 0 0 0 9.364 4.98 7.499 7.499 0 0 0 4.98-9.364L75.68 224.788a19.924 19.924 0 0 1-.886-5.879c0-8.899 5.728-16.63 14.25-19.237 10.621-3.243 21.894 2.753 25.138 13.374l.49 1.6a7.5 7.5 0 0 0 10.088 4.713l5.354-2.259-5.589 26.566a7.5 7.5 0 0 0 .167 3.736l29.092 95.175-38.706 11.119-9.811-32.099a7.5 7.5 0 0 0-9.365-4.98 7.5 7.5 0 0 0-4.98 9.365l29.106 95.222a7.436 7.436 0 0 0-.083 1.116v82.18a7.5 7.5 0 0 0 7.5 7.5h256.08c17.209 0 31.21-13.997 31.21-31.2v-58.48c0-31.5-16.842-60.463-43.204-76.388 24.698-14.32 40.825-40.173 42.344-69.549.312-6.12.556-12.249.749-18.384 17.545-3.343 30.853-18.789 30.853-37.293.001-18.714-13.601-34.299-31.432-37.409zM275.472 497c1.45-16.942 15.704-30.286 33.015-30.286h43.101a7.5 7.5 0 0 0 7.5-7.5v-15.595h40.641v37.177c0 8.935-7.269 16.204-16.204 16.204zm124.264-74.68v6.299h-40.648v-7.604a7.5 7.5 0 0 0-15 0V451.714h-35.601c-25.585 0-46.564 20.066-48.045 45.286H134.946v-73.634l.083-.294a7.494 7.494 0 0 0-.042-4.244l-15.523-50.784 38.706-11.119 15.323 50.128a7.502 7.502 0 0 0 7.17 5.31 7.5 7.5 0 0 0 7.175-9.695l-15.997-52.334a85.656 85.656 0 0 0 6.38 2.503c7.668 2.656 15.74 4.205 24.002 4.604 2.731.128 5.471.225 8.207.337-13.507 21.842-7.901 44.784-2.023 55.176a7.504 7.504 0 0 0 8.035 3.655c19.22-3.941 33.879-11.374 43.395-17.464v36.678a7.5 7.5 0 0 0 15 0V399.15c9.516 6.089 24.172 13.518 43.387 17.458a7.498 7.498 0 0 0 8.034-3.655c5.878-10.392 11.484-33.334-2.023-55.176 2.734-.112 5.473-.209 8.203-.337a85.802 85.802 0 0 0 21.305-3.729c27.612 11.345 45.993 38.593 45.993 68.609zm-177.864-54.425c5.214 9.333 14.717 16.783 26.484 20.704-7.11 4.174-16.862 8.79-29.01 11.943-2.287-6.75-4.671-19.358 2.526-32.647zm90.923.001c7.202 13.297 4.811 25.909 2.529 32.644-12.075-3.144-21.831-7.772-28.964-11.956 11.744-3.924 21.228-11.367 26.435-20.688zm-45.457 8.736h-.008c-15.799-.002-29.167-7.641-33.417-18.071 11.125.267 22.271.405 33.416.405 11.148 0 22.296-.138 33.424-.405-4.249 10.431-17.616 18.071-33.415 18.071zm131.557-101.019c-1.489 28.796-19.994 53.497-47.163 62.984a7.619 7.619 0 0 0-.198.065 70.717 70.717 0 0 1-19.802 3.796 1376.564 1376.564 0 0 1-128.795 0c-6.825-.33-13.489-1.607-19.807-3.795a70.302 70.302 0 0 1-17.631-9.073l-25.898-84.726 6.401-30.423a11.884 11.884 0 0 0-4.068-11.654 11.882 11.882 0 0 0-6.961-2.698c.028-.943.052-1.875.083-2.825 18.019-2.366 32.784-13.708 42.998-33.157 3.599-6.854 6.078-13.677 7.737-19.254 17.893 13.807 41.88 23.391 68.945 27.373 31.049 4.568 62.7 1.461 89.125-8.751a104.078 104.078 0 0 0 10.188-4.613 7.5 7.5 0 1 0-6.891-13.323 89.282 89.282 0 0 1-8.708 3.946c-23.698 9.158-53.414 12.038-81.531 7.9-29.168-4.292-54.122-15.542-70.263-31.679a7.501 7.501 0 0 0-12.724 4.22c-.077.528-8.161 52.805-46.129 52.805a7.5 7.5 0 0 0-7.494 7.207c-.059 1.52-.114 3.033-.167 4.542a35.227 35.227 0 0 0-5.971-4.921C91.732 98.38 103.812 65.447 118.017 53.911c17.628-14.314 45.881-.841 46.15-.711a7.499 7.499 0 0 0 9.974-3.292c8.279-16.046 20.104-24.835 36.153-26.869a59.101 59.101 0 0 1 3.571-.342c.171-.003.344-.009.525-.021 8.99-.466 19.119 1.08 30.081 4.601a132.885 132.885 0 0 1 9.554 3.495 153.625 153.625 0 0 1 16.189 7.792c-9.611 12.64-19.546 24.78-30.086 28.672a7.5 7.5 0 1 0 5.196 14.072c15.876-5.863 28.219-22.23 40.155-38.06C295.95 29.359 306.778 15 315.676 15c2.809 0 3.941.986 4.677 1.951 4.605 6.03 2.598 23.716-.304 34.396a7.604 7.604 0 0 0-.293 2.073 7.49 7.49 0 0 0 6.339 7.394c3.509.554 6.909-1.446 8.17-4.729C334.72 54.934 350.787 15 377.056 15c5.92 0 7.282 2.14 7.794 2.946 4.007 6.297-.23 23.438-6.313 36.583a7.496 7.496 0 0 0 1.39 8.889c2.938 2.869 7.647 2.83 10.551-.074.22-.22.426-.454.617-.699 7.814-10.049 27.701-30.767 39.367-30.767h.045c1.578.007 3.456.362 5.425 2.943 3.323 4.354.674 17.985-12.735 38.622-12.986 19.984-32.497 41.105-52.191 56.499a7.5 7.5 0 0 0 9.237 11.819c4.919-3.844 9.824-8.036 14.636-12.462 5.137 48.578 6.498 97.724 4.016 146.314zm16.089-33.192a953.022 953.022 0 0 0-.345-43.56c9.185 3.01 15.839 11.661 15.839 21.844 0 10.049-6.488 18.606-15.494 21.716z" fill="#000000" opacity="1" data-original="#000000" class=""></path></g></svg>