<svg xmlns="http://www.w3.org/2000/svg" version="1.1" xmlns:xlink="http://www.w3.org/1999/xlink" width="512" height="512" x="0" y="0" viewBox="0 0 61.99 62" style="enable-background:new 0 0 512 512" xml:space="preserve" class=""><circle r="30.995" cx="30.995" cy="31" fill="#ffffff" shape="circle"></circle><g transform="matrix(0.7,0,0,0.7,9.298612403869626,9.299992569943793)"><path fill="#b4dd7f" d="M39.995 42v11.43c0 .37.09.75.26 1.08l1.48 2.98c.17.33.26.71.26 1.08 0 1.34-1.09 2.43-2.43 2.43h-17.14a2.426 2.426 0 0 1-2.43-2.43c0-.37.09-.75.26-1.08l1.48-2.98c.17-.33.26-.71.26-1.08V42l-2.19 3.81a6.342 6.342 0 0 1-5.51 3.18 6.347 6.347 0 0 1-4.46-1.86 6.329 6.329 0 0 1-1.84-4.47V32h6l2.06 6.86a19.93 19.93 0 0 1 9.57-5.32l1.37 5.46 2-2 1 3-2 9 3 4 3-4-2-9 1-3 2 2 1.37-5.46c3.61.84 6.93 2.68 9.57 5.32l2.06-6.86h6v10.66c0 1.74-.7 3.32-1.84 4.47a6.347 6.347 0 0 1-4.46 1.86c-2.28 0-4.38-1.21-5.51-3.18z" opacity="1" data-original="#b4dd7f" class=""></path><path fill="#a0d468" d="M30.215 33h1.56c1.56 0 3.1.18 4.59.54L34.995 39l-2-2-2-2-2 2-2 2-1.37-5.46c1.49-.36 3.03-.54 4.59-.54z" opacity="1" data-original="#a0d468"></path><path fill="#ffeaa7" d="m31.995 40 2 9-3 4-3-4 2-9z" opacity="1" data-original="#ffeaa7"></path><path fill="#fcd770" d="m32.995 37-1 3h-2l-1-3 2-2z" opacity="1" data-original="#fcd770"></path><path fill="#656d78" d="M40.995 7h.43c3.08 0 5.57 2.49 5.57 5.57 0 1.59-.43 3.15-1.25 4.51l-.21.35c-.45-.27-.98-.43-1.54-.43h-1c0-2.21-1.79-4-4-4h-1.79c-4.12 0-8.22-.57-12.19-1.71l-1.02-.29c-2.76 0-5 2.24-5 5v1h-1c-.56 0-1.09.16-1.54.43l-.43-.71a7.289 7.289 0 0 1-1.03-3.72v-.53c0-1.37.39-2.68 1.08-3.8.7-1.12 1.7-2.05 2.92-2.67l.18-.45A7.235 7.235 0 0 1 25.895 1h9.53c3.08 0 5.57 2.49 5.57 5.57z" opacity="1" data-original="#656d78" class=""></path><path fill="#f0d0b4" d="M15.995 28v1.17c0 .53-.21 1.04-.59 1.42L13.995 32h-6v-7c0-1.1.9-2 2-2h2c1.1 0 2 .9 2 2v1c.55 0 1.05.22 1.41.59.37.36.59.86.59 1.41zM53.995 25v7h-6l-1.41-1.41c-.38-.38-.59-.89-.59-1.42V28c0-.55.22-1.05.59-1.41.36-.37.86-.59 1.41-.59v-1c0-1.1.9-2 2-2h2c1.1 0 2 .9 2 2zM45.535 17.43a2.993 2.993 0 0 1 1.46 2.57c0 1.66-1.34 3-3 3h-1v-6h1c.56 0 1.09.16 1.54.43zM42.995 17v6c0 5.52-4.48 10-10 10h-4c-5.52 0-10-4.48-10-10v-7c0-2.76 2.24-5 5-5l1.02.29c3.97 1.14 8.07 1.71 12.19 1.71h1.79c2.21 0 4 1.79 4 4z" opacity="1" data-original="#f0d0b4" class=""></path><path fill="#f0d0b4" d="M18.995 17v6h-1c-.83 0-1.58-.34-2.12-.88s-.88-1.29-.88-2.12c0-1.1.58-2.05 1.46-2.57.45-.27.98-.43 1.54-.43z" opacity="1" data-original="#f0d0b4" class=""></path><path d="M51.995 22h-2c-1.654 0-3 1.346-3 3v.171a3.006 3.006 0 0 0-2 2.829v1.171c0 .801.312 1.555.879 2.122l.991.992-1.431 4.77a20.847 20.847 0 0 0-7.628-4.178c3.373-1.65 5.784-4.966 6.139-8.877h.051c2.206 0 4-1.795 4-4a3.986 3.986 0 0 0-1.175-2.829 9.763 9.763 0 0 0 1.175-4.602c0-3.44-2.659-6.265-6.027-6.542C41.691 2.658 38.865 0 35.426 0h-9.531a8.195 8.195 0 0 0-7.647 5.177l-.044.111a8.189 8.189 0 0 0-4.208 7.184v.523c0 1.478.401 2.929 1.154 4.2A3.986 3.986 0 0 0 13.996 20c0 2.206 1.794 4 3.999 4h.052c.354 3.91 2.765 7.227 6.138 8.877a20.846 20.846 0 0 0-7.628 4.178l-1.431-4.769.991-.992c.566-.567.879-1.32.879-2.122V28a3.006 3.006 0 0 0-2-2.829V25c0-1.654-1.346-3-3-3h-2c-1.654 0-3 1.346-3 3v17.66c0 4.026 3.275 7.313 7.3 7.326h.028a7.339 7.339 0 0 0 6.352-3.678l.32-.558v7.676c0 .221-.052.441-.15.639l-1.488 2.976A3.43 3.43 0 0 0 22.424 62H39.57a3.43 3.43 0 0 0 3.066-4.96l-1.488-2.974a1.436 1.436 0 0 1-.15-.64V45.75l.32.558a7.338 7.338 0 0 0 6.352 3.678h.027c4.025-.014 7.301-3.3 7.301-7.326V25a3.008 3.008 0 0 0-3.003-3zm-5 6c0-.551.448-1 1-1h1v-2c0-.551.448-1 1-1h2c.552 0 1 .449 1 1v6h-4.586l-1.121-1.121a.998.998 0 0 1-.293-.708zm-16.78 6h.365l-3.043 3.044-.684-2.735c1.1-.195 2.221-.309 3.362-.309zm.583 7h.395l1.726 7.768-1.924 2.565-1.924-2.565zm.476-2h-.559l-.577-1.73.856-.857.856.857zm.136-5h.365c1.14 0 2.262.114 3.362.309l-.684 2.735zm12.585-12v-4c1.103 0 2 .897 2 2s-.897 2-2 2zm-28-2c0-1.103.897-2 2-2v4c-1.102 0-2-.897-2-2zm2-4c-.393 0-.765.074-1.123.18a6.241 6.241 0 0 1-.877-3.185v-.523a6.203 6.203 0 0 1 3.447-5.578l.34-.17.322-.805A6.208 6.208 0 0 1 25.895 2h9.531c2.325 0 4.228 1.751 4.512 4h-3.942v2h5.431c2.52 0 4.569 2.05 4.569 4.569a7.775 7.775 0 0 1-.904 3.603A3.986 3.986 0 0 0 43.995 16h-.101a5.009 5.009 0 0 0-4.899-4H37.21c-4.03 0-8.039-.562-11.916-1.669l-1.024-.292-.275-.039c-3.308 0-6 2.692-6 6zm11 16c-4.963 0-9-4.037-9-9v-7a4.005 4.005 0 0 1 3.867-3.998l.883.252A45.344 45.344 0 0 0 37.21 14h1.785c1.654 0 3 1.346 3 3v6c0 4.962-4.037 9-9 9H30.214zm-19-8h2c.552 0 1 .449 1 1v2h1c.552 0 1 .449 1 1v1.171a.996.996 0 0 1-.293.708L13.581 31H8.995v-6c0-.551.448-1 1-1zm37.693 23.986h-.021a5.334 5.334 0 0 1-4.617-2.674l-2.055-3.579V39h-2v14.427c0 .528.125 1.059.361 1.533l1.488 2.974a1.428 1.428 0 0 1-1.277 2.067H22.422a1.428 1.428 0 0 1-1.277-2.066l1.488-2.976a3.456 3.456 0 0 0 .361-1.532V39h-2v2.733l-2.055 3.579a5.335 5.335 0 0 1-4.618 2.674H14.3a5.335 5.335 0 0 1-5.307-5.326V33h4.256l2.786 9.287 1.916-.574-.761-2.538a18.895 18.895 0 0 1 7.712-4.418l1.549 6.199 2.105-2.105.401 1.202-2.04 9.18 4.076 5.435 4.076-5.435-2.04-9.18.401-1.202 2.105 2.105 1.549-6.199a18.911 18.911 0 0 1 7.712 4.417l-.761 2.538 1.916.574L48.74 33h4.256v9.66a5.336 5.336 0 0 1-5.308 5.326zM58.773 9.222l-1.414 1.414c3.509 3.509 3.509 9.219 0 12.729l1.414 1.414c4.29-4.29 4.29-11.268 0-15.557z" fill="#000000" opacity="1" data-original="#000000" class=""></path><path d="m55.944 12.05-1.414 1.414c.944.944 1.465 2.2 1.465 3.536s-.521 2.591-1.465 3.536l1.414 1.414c1.322-1.322 2.051-3.08 2.051-4.95s-.728-3.627-2.051-4.95zM4.631 10.636 3.217 9.222c-4.289 4.289-4.289 11.268 0 15.557l1.414-1.414c-3.509-3.51-3.509-9.22 0-12.729z" fill="#000000" opacity="1" data-original="#000000" class=""></path><path d="M5.995 17c0-1.335.521-2.591 1.465-3.536L6.046 12.05C4.724 13.373 3.995 15.13 3.995 17s.729 3.627 2.051 4.95l1.414-1.414A4.972 4.972 0 0 1 5.995 17zM27.995 20h2c0-2.206-1.794-4-4-4s-4 1.794-4 4h2c0-1.103.897-2 2-2s2 .897 2 2zM35.995 18c1.103 0 2 .897 2 2h2c0-2.206-1.794-4-4-4s-4 1.794-4 4h2c0-1.103.898-2 2-2zM35.995 25h-2c0 1.654-1.346 3-3 3s-3-1.346-3-3h-2c0 2.757 2.243 5 5 5s5-2.243 5-5z" fill="#000000" opacity="1" data-original="#000000" class=""></path></g></svg>